<mxfile host="app.diagrams.net" modified="2023-11-27T15:20:46.727Z" agent="Mozilla/5.0 (Windows NT 10.0; Win64; x64) AppleWebKit/537.36 (KHTML, like Gecko) Chrome/119.0.0.0 Safari/537.36" etag="MZepElt1QkMszAKTS5LE" version="22.1.4" type="github">
  <diagram id="R2lEEEUBdFMjLlhIrx00" name="Page-1">
    <mxGraphModel dx="880" dy="478" grid="1" gridSize="10" guides="1" tooltips="1" connect="1" arrows="1" fold="1" page="1" pageScale="1" pageWidth="850" pageHeight="1100" math="0" shadow="0" extFonts="Permanent Marker^https://fonts.googleapis.com/css?family=Permanent+Marker">
      <root>
        <mxCell id="0" />
        <mxCell id="1" parent="0" />
        <mxCell id="WyWF_PlVWu7VsmN628Tb-1" value="Socios" style="rounded=0;whiteSpace=wrap;html=1;" parent="1" vertex="1">
          <mxGeometry x="303.33" y="100" width="120" height="60" as="geometry" />
        </mxCell>
        <mxCell id="WyWF_PlVWu7VsmN628Tb-4" value="Pista" style="rounded=0;whiteSpace=wrap;html=1;" parent="1" vertex="1">
          <mxGeometry x="310" y="230" width="120" height="60" as="geometry" />
        </mxCell>
        <mxCell id="WyWF_PlVWu7VsmN628Tb-5" value="" style="endArrow=none;html=1;rounded=0;exitX=0.45;exitY=0;exitDx=0;exitDy=0;exitPerimeter=0;" parent="1" source="WyWF_PlVWu7VsmN628Tb-1" target="WyWF_PlVWu7VsmN628Tb-6" edge="1">
          <mxGeometry width="50" height="50" relative="1" as="geometry">
            <mxPoint x="408.33" y="100" as="sourcePoint" />
            <mxPoint x="458.33" y="50" as="targetPoint" />
          </mxGeometry>
        </mxCell>
        <mxCell id="WyWF_PlVWu7VsmN628Tb-6" value="dirección" style="ellipse;whiteSpace=wrap;html=1;" parent="1" vertex="1">
          <mxGeometry x="333.33" y="10" width="70" height="40" as="geometry" />
        </mxCell>
        <mxCell id="WyWF_PlVWu7VsmN628Tb-7" value="" style="endArrow=none;html=1;rounded=0;" parent="1" target="WyWF_PlVWu7VsmN628Tb-8" edge="1">
          <mxGeometry width="50" height="50" relative="1" as="geometry">
            <mxPoint x="313.33" y="100" as="sourcePoint" />
            <mxPoint x="363.33" y="50" as="targetPoint" />
          </mxGeometry>
        </mxCell>
        <mxCell id="WyWF_PlVWu7VsmN628Tb-8" value="Tlf" style="ellipse;whiteSpace=wrap;html=1;" parent="1" vertex="1">
          <mxGeometry x="268.33" y="10" width="60" height="30" as="geometry" />
        </mxCell>
        <mxCell id="WyWF_PlVWu7VsmN628Tb-9" value="" style="endArrow=none;html=1;rounded=0;exitX=0.75;exitY=0;exitDx=0;exitDy=0;" parent="1" source="WyWF_PlVWu7VsmN628Tb-1" edge="1">
          <mxGeometry width="50" height="50" relative="1" as="geometry">
            <mxPoint x="458.33" y="140" as="sourcePoint" />
            <mxPoint x="431.663811580258" y="58.18129645790032" as="targetPoint" />
          </mxGeometry>
        </mxCell>
        <mxCell id="WyWF_PlVWu7VsmN628Tb-10" value="IBAN" style="ellipse;whiteSpace=wrap;html=1;" parent="1" vertex="1">
          <mxGeometry x="410" y="30" width="80" height="40" as="geometry" />
        </mxCell>
        <mxCell id="WyWF_PlVWu7VsmN628Tb-11" value="" style="endArrow=none;html=1;rounded=0;exitX=0;exitY=0;exitDx=0;exitDy=0;" parent="1" source="WyWF_PlVWu7VsmN628Tb-1" target="WyWF_PlVWu7VsmN628Tb-12" edge="1">
          <mxGeometry width="50" height="50" relative="1" as="geometry">
            <mxPoint x="263.33" y="70" as="sourcePoint" />
            <mxPoint x="218.33" y="60" as="targetPoint" />
          </mxGeometry>
        </mxCell>
        <mxCell id="WyWF_PlVWu7VsmN628Tb-12" value="&lt;u&gt;ID&lt;/u&gt;" style="ellipse;whiteSpace=wrap;html=1;" parent="1" vertex="1">
          <mxGeometry x="228.33" y="45" width="60" height="40" as="geometry" />
        </mxCell>
        <mxCell id="WyWF_PlVWu7VsmN628Tb-13" value="" style="endArrow=none;html=1;rounded=0;exitX=0;exitY=0.25;exitDx=0;exitDy=0;" parent="1" source="WyWF_PlVWu7VsmN628Tb-1" target="WyWF_PlVWu7VsmN628Tb-14" edge="1">
          <mxGeometry width="50" height="50" relative="1" as="geometry">
            <mxPoint x="58.33" y="130" as="sourcePoint" />
            <mxPoint x="108.33" y="80" as="targetPoint" />
          </mxGeometry>
        </mxCell>
        <mxCell id="WyWF_PlVWu7VsmN628Tb-14" value="DNI" style="ellipse;whiteSpace=wrap;html=1;" parent="1" vertex="1">
          <mxGeometry x="148.33" y="50" width="70" height="50" as="geometry" />
        </mxCell>
        <mxCell id="WyWF_PlVWu7VsmN628Tb-15" value="" style="endArrow=none;html=1;rounded=0;exitX=0;exitY=0.5;exitDx=0;exitDy=0;" parent="1" source="WyWF_PlVWu7VsmN628Tb-1" target="WyWF_PlVWu7VsmN628Tb-16" edge="1">
          <mxGeometry width="50" height="50" relative="1" as="geometry">
            <mxPoint x="263.33" y="130" as="sourcePoint" />
            <mxPoint x="98.33" y="140" as="targetPoint" />
          </mxGeometry>
        </mxCell>
        <mxCell id="WyWF_PlVWu7VsmN628Tb-16" value="@" style="ellipse;whiteSpace=wrap;html=1;" parent="1" vertex="1">
          <mxGeometry x="138.33" y="105" width="70" height="50" as="geometry" />
        </mxCell>
        <mxCell id="WyWF_PlVWu7VsmN628Tb-17" value="" style="endArrow=none;html=1;rounded=0;" parent="1" target="WyWF_PlVWu7VsmN628Tb-18" edge="1">
          <mxGeometry width="50" height="50" relative="1" as="geometry">
            <mxPoint x="690" y="120" as="sourcePoint" />
            <mxPoint x="740" y="70" as="targetPoint" />
          </mxGeometry>
        </mxCell>
        <mxCell id="WyWF_PlVWu7VsmN628Tb-18" value="Nombre" style="ellipse;whiteSpace=wrap;html=1;" parent="1" vertex="1">
          <mxGeometry x="680" y="30" width="70" height="50" as="geometry" />
        </mxCell>
        <mxCell id="WyWF_PlVWu7VsmN628Tb-19" value="" style="endArrow=none;html=1;rounded=0;" parent="1" target="WyWF_PlVWu7VsmN628Tb-20" edge="1">
          <mxGeometry width="50" height="50" relative="1" as="geometry">
            <mxPoint x="610" y="120" as="sourcePoint" />
            <mxPoint x="660" y="70" as="targetPoint" />
          </mxGeometry>
        </mxCell>
        <mxCell id="WyWF_PlVWu7VsmN628Tb-20" value="DNI" style="ellipse;whiteSpace=wrap;html=1;" parent="1" vertex="1">
          <mxGeometry x="600" y="30" width="70" height="50" as="geometry" />
        </mxCell>
        <mxCell id="WyWF_PlVWu7VsmN628Tb-21" value="" style="endArrow=none;html=1;rounded=0;" parent="1" target="WyWF_PlVWu7VsmN628Tb-22" edge="1">
          <mxGeometry width="50" height="50" relative="1" as="geometry">
            <mxPoint x="700" y="160" as="sourcePoint" />
            <mxPoint x="750" y="110" as="targetPoint" />
          </mxGeometry>
        </mxCell>
        <mxCell id="WyWF_PlVWu7VsmN628Tb-22" value="Apellidos" style="ellipse;whiteSpace=wrap;html=1;" parent="1" vertex="1">
          <mxGeometry x="740" y="130" width="80" height="40" as="geometry" />
        </mxCell>
        <mxCell id="WyWF_PlVWu7VsmN628Tb-24" value="tienen" style="rhombus;whiteSpace=wrap;html=1;" parent="1" vertex="1">
          <mxGeometry x="480" y="125" width="60" height="30" as="geometry" />
        </mxCell>
        <mxCell id="WyWF_PlVWu7VsmN628Tb-25" value="" style="endArrow=none;html=1;rounded=0;entryX=0;entryY=0.5;entryDx=0;entryDy=0;exitX=1;exitY=0.5;exitDx=0;exitDy=0;" parent="1" source="WyWF_PlVWu7VsmN628Tb-1" target="WyWF_PlVWu7VsmN628Tb-24" edge="1">
          <mxGeometry width="50" height="50" relative="1" as="geometry">
            <mxPoint x="400" y="280" as="sourcePoint" />
            <mxPoint x="450" y="230" as="targetPoint" />
          </mxGeometry>
        </mxCell>
        <mxCell id="WyWF_PlVWu7VsmN628Tb-26" value="" style="endArrow=none;html=1;rounded=0;entryX=1;entryY=0.5;entryDx=0;entryDy=0;exitX=0;exitY=0.5;exitDx=0;exitDy=0;" parent="1" target="WyWF_PlVWu7VsmN628Tb-24" edge="1">
          <mxGeometry width="50" height="50" relative="1" as="geometry">
            <mxPoint x="580" y="150" as="sourcePoint" />
            <mxPoint x="450" y="230" as="targetPoint" />
          </mxGeometry>
        </mxCell>
        <mxCell id="WyWF_PlVWu7VsmN628Tb-37" value="tienen" style="rhombus;whiteSpace=wrap;html=1;rotation=30;" parent="1" vertex="1">
          <mxGeometry x="490" y="200" width="60" height="30" as="geometry" />
        </mxCell>
        <mxCell id="WyWF_PlVWu7VsmN628Tb-38" value="" style="endArrow=none;html=1;rounded=0;exitX=0.5;exitY=0;exitDx=0;exitDy=0;entryX=1;entryY=0.5;entryDx=0;entryDy=0;" parent="1" target="WyWF_PlVWu7VsmN628Tb-37" edge="1">
          <mxGeometry width="50" height="50" relative="1" as="geometry">
            <mxPoint x="650" y="270" as="sourcePoint" />
            <mxPoint x="550" y="240" as="targetPoint" />
          </mxGeometry>
        </mxCell>
        <mxCell id="WyWF_PlVWu7VsmN628Tb-39" value="" style="endArrow=none;html=1;rounded=0;entryX=0;entryY=0.5;entryDx=0;entryDy=0;exitX=1;exitY=1;exitDx=0;exitDy=0;" parent="1" source="WyWF_PlVWu7VsmN628Tb-1" target="WyWF_PlVWu7VsmN628Tb-37" edge="1">
          <mxGeometry width="50" height="50" relative="1" as="geometry">
            <mxPoint x="590" y="160" as="sourcePoint" />
            <mxPoint x="550" y="160" as="targetPoint" />
          </mxGeometry>
        </mxCell>
        <mxCell id="WyWF_PlVWu7VsmN628Tb-40" value="tipo" style="ellipse;whiteSpace=wrap;html=1;" parent="1" vertex="1">
          <mxGeometry x="360" y="350" width="60" height="25" as="geometry" />
        </mxCell>
        <mxCell id="WyWF_PlVWu7VsmN628Tb-41" value="iluminación" style="ellipse;whiteSpace=wrap;html=1;" parent="1" vertex="1">
          <mxGeometry x="250" y="325" width="70" height="25" as="geometry" />
        </mxCell>
        <mxCell id="WyWF_PlVWu7VsmN628Tb-42" value="" style="endArrow=none;html=1;rounded=0;entryX=0.5;entryY=0;entryDx=0;entryDy=0;exitX=0;exitY=1;exitDx=0;exitDy=0;" parent="1" source="WyWF_PlVWu7VsmN628Tb-4" target="WyWF_PlVWu7VsmN628Tb-41" edge="1">
          <mxGeometry width="50" height="50" relative="1" as="geometry">
            <mxPoint x="320" y="270" as="sourcePoint" />
            <mxPoint x="300" y="270" as="targetPoint" />
          </mxGeometry>
        </mxCell>
        <mxCell id="WyWF_PlVWu7VsmN628Tb-43" value="" style="endArrow=none;html=1;rounded=0;entryX=0.75;entryY=1;entryDx=0;entryDy=0;exitX=0.5;exitY=0;exitDx=0;exitDy=0;" parent="1" source="WyWF_PlVWu7VsmN628Tb-40" target="WyWF_PlVWu7VsmN628Tb-4" edge="1">
          <mxGeometry width="50" height="50" relative="1" as="geometry">
            <mxPoint x="440" y="320" as="sourcePoint" />
            <mxPoint x="399" y="322" as="targetPoint" />
            <Array as="points" />
          </mxGeometry>
        </mxCell>
        <mxCell id="brks7QJ95a0oLIJPX-ze-1" value="tienen" style="rhombus;whiteSpace=wrap;html=1;rotation=15;" parent="1" vertex="1">
          <mxGeometry x="490" y="260" width="60" height="30" as="geometry" />
        </mxCell>
        <mxCell id="brks7QJ95a0oLIJPX-ze-2" value="" style="endArrow=none;html=1;rounded=0;exitX=1;exitY=0.5;exitDx=0;exitDy=0;entryX=0;entryY=0.5;entryDx=0;entryDy=0;" parent="1" source="WyWF_PlVWu7VsmN628Tb-4" target="brks7QJ95a0oLIJPX-ze-1" edge="1">
          <mxGeometry width="50" height="50" relative="1" as="geometry">
            <mxPoint x="420" y="363" as="sourcePoint" />
            <mxPoint x="500" y="310" as="targetPoint" />
            <Array as="points" />
          </mxGeometry>
        </mxCell>
        <mxCell id="brks7QJ95a0oLIJPX-ze-3" value="" style="endArrow=none;html=1;rounded=0;entryX=1;entryY=0.5;entryDx=0;entryDy=0;exitX=0;exitY=0.5;exitDx=0;exitDy=0;" parent="1" target="brks7QJ95a0oLIJPX-ze-1" edge="1">
          <mxGeometry width="50" height="50" relative="1" as="geometry">
            <mxPoint x="590" y="300" as="sourcePoint" />
            <mxPoint x="420" y="310" as="targetPoint" />
            <Array as="points" />
          </mxGeometry>
        </mxCell>
        <mxCell id="brks7QJ95a0oLIJPX-ze-5" value="&lt;u&gt;fecha-hora&lt;/u&gt;" style="ellipse;whiteSpace=wrap;html=1;" parent="1" vertex="1">
          <mxGeometry x="590" y="350" width="70" height="25" as="geometry" />
        </mxCell>
        <mxCell id="brks7QJ95a0oLIJPX-ze-19" value="&lt;u&gt;Nº pista&lt;/u&gt;" style="ellipse;whiteSpace=wrap;html=1;" parent="1" vertex="1">
          <mxGeometry x="190" y="245" width="70" height="25" as="geometry" />
        </mxCell>
        <mxCell id="brks7QJ95a0oLIJPX-ze-20" value="" style="endArrow=none;html=1;rounded=0;entryX=1;entryY=0.5;entryDx=0;entryDy=0;exitX=0;exitY=0.5;exitDx=0;exitDy=0;" parent="1" source="WyWF_PlVWu7VsmN628Tb-4" target="brks7QJ95a0oLIJPX-ze-19" edge="1">
          <mxGeometry width="50" height="50" relative="1" as="geometry">
            <mxPoint x="270" y="240" as="sourcePoint" />
            <mxPoint x="260" y="220" as="targetPoint" />
          </mxGeometry>
        </mxCell>
        <mxCell id="brks7QJ95a0oLIJPX-ze-21" value="" style="endArrow=none;html=1;rounded=0;entryX=0.5;entryY=0;entryDx=0;entryDy=0;" parent="1" target="brks7QJ95a0oLIJPX-ze-5" edge="1">
          <mxGeometry width="50" height="50" relative="1" as="geometry">
            <mxPoint x="640" y="330" as="sourcePoint" />
            <mxPoint x="500" y="400" as="targetPoint" />
            <Array as="points" />
          </mxGeometry>
        </mxCell>
        <mxCell id="brks7QJ95a0oLIJPX-ze-27" value="Familiares" style="shape=ext;margin=3;double=1;whiteSpace=wrap;html=1;align=center;" parent="1" vertex="1">
          <mxGeometry x="577.5" y="120" width="122.5" height="60" as="geometry" />
        </mxCell>
        <mxCell id="brks7QJ95a0oLIJPX-ze-28" value="Reserva" style="shape=ext;margin=3;double=1;whiteSpace=wrap;html=1;align=center;" parent="1" vertex="1">
          <mxGeometry x="590" y="270" width="122.5" height="60" as="geometry" />
        </mxCell>
        <mxCell id="brks7QJ95a0oLIJPX-ze-33" value="" style="endArrow=none;html=1;rounded=0;exitX=0;exitY=1;exitDx=0;exitDy=0;" parent="1" source="WyWF_PlVWu7VsmN628Tb-1" target="brks7QJ95a0oLIJPX-ze-34" edge="1">
          <mxGeometry width="50" height="50" relative="1" as="geometry">
            <mxPoint x="228.33" y="230" as="sourcePoint" />
            <mxPoint x="278.33" y="180" as="targetPoint" />
          </mxGeometry>
        </mxCell>
        <mxCell id="brks7QJ95a0oLIJPX-ze-34" value="Nombre" style="ellipse;whiteSpace=wrap;html=1;" parent="1" vertex="1">
          <mxGeometry x="218.33" y="140" width="70" height="50" as="geometry" />
        </mxCell>
        <mxCell id="brks7QJ95a0oLIJPX-ze-35" value="" style="endArrow=none;html=1;rounded=0;exitX=0.383;exitY=1.017;exitDx=0;exitDy=0;exitPerimeter=0;" parent="1" source="WyWF_PlVWu7VsmN628Tb-1" target="brks7QJ95a0oLIJPX-ze-36" edge="1">
          <mxGeometry width="50" height="50" relative="1" as="geometry">
            <mxPoint x="238.33" y="270" as="sourcePoint" />
            <mxPoint x="288.33" y="220" as="targetPoint" />
          </mxGeometry>
        </mxCell>
        <mxCell id="brks7QJ95a0oLIJPX-ze-36" value="Apellidos" style="ellipse;whiteSpace=wrap;html=1;" parent="1" vertex="1">
          <mxGeometry x="298.33" y="170" width="80" height="40" as="geometry" />
        </mxCell>
        <mxCell id="brks7QJ95a0oLIJPX-ze-38" value="1" style="text;strokeColor=none;align=center;fillColor=none;html=1;verticalAlign=middle;whiteSpace=wrap;rounded=0;" parent="1" vertex="1">
          <mxGeometry x="420" y="240" width="60" height="30" as="geometry" />
        </mxCell>
        <mxCell id="brks7QJ95a0oLIJPX-ze-39" value="1" style="text;strokeColor=none;align=center;fillColor=none;html=1;verticalAlign=middle;whiteSpace=wrap;rounded=0;" parent="1" vertex="1">
          <mxGeometry x="540" y="270" width="60" height="30" as="geometry" />
        </mxCell>
        <mxCell id="brks7QJ95a0oLIJPX-ze-40" value="1" style="text;strokeColor=none;align=center;fillColor=none;html=1;verticalAlign=middle;whiteSpace=wrap;rounded=0;" parent="1" vertex="1">
          <mxGeometry x="425" y="110" width="60" height="30" as="geometry" />
        </mxCell>
        <mxCell id="brks7QJ95a0oLIJPX-ze-41" value="N" style="text;strokeColor=none;align=center;fillColor=none;html=1;verticalAlign=middle;whiteSpace=wrap;rounded=0;" parent="1" vertex="1">
          <mxGeometry x="520" y="115" width="60" height="30" as="geometry" />
        </mxCell>
        <mxCell id="brks7QJ95a0oLIJPX-ze-42" value="1" style="text;strokeColor=none;align=center;fillColor=none;html=1;verticalAlign=middle;whiteSpace=wrap;rounded=0;" parent="1" vertex="1">
          <mxGeometry x="570" y="220" width="60" height="30" as="geometry" />
        </mxCell>
        <mxCell id="brks7QJ95a0oLIJPX-ze-43" value="N" style="text;strokeColor=none;align=center;fillColor=none;html=1;verticalAlign=middle;whiteSpace=wrap;rounded=0;" parent="1" vertex="1">
          <mxGeometry x="423.33" y="150" width="60" height="30" as="geometry" />
        </mxCell>
        <mxCell id="BEREdBPzFpEHEAyQqDp2-1" value="" style="endArrow=none;html=1;rounded=0;exitX=0.5;exitY=1;exitDx=0;exitDy=0;" parent="1" source="brks7QJ95a0oLIJPX-ze-27" target="BEREdBPzFpEHEAyQqDp2-2" edge="1">
          <mxGeometry width="50" height="50" relative="1" as="geometry">
            <mxPoint x="640" y="225" as="sourcePoint" />
            <mxPoint x="690" y="175" as="targetPoint" />
          </mxGeometry>
        </mxCell>
        <mxCell id="BEREdBPzFpEHEAyQqDp2-2" value="&lt;u&gt;Nº familiar&lt;/u&gt;" style="ellipse;whiteSpace=wrap;html=1;" parent="1" vertex="1">
          <mxGeometry x="680" y="195" width="70" height="50" as="geometry" />
        </mxCell>
      </root>
    </mxGraphModel>
  </diagram>
</mxfile>
